<?xml version="1.0" encoding="utf-8"?><!-- Uploaded to: SVG Repo, www.svgrepo.com, Generator: SVG Repo Mixer Tools -->
<svg width="800px" height="800px" viewBox="0 0 64 64" xmlns="http://www.w3.org/2000/svg" stroke-width="3" stroke="#000000" fill="none"><path d="M45.77,51a.09.09,0,0,1,.11,0l3.4,3.31s.12,0,.12-.07V9.7H14.6V54.16a.08.08,0,0,0,.13.07l4.38-3.29a.08.08,0,0,1,.1,0l4.53,3.33a.08.08,0,0,0,.11,0l4-3.33s.07,0,.11,0l4.52,3.32a.08.08,0,0,0,.11,0L36.79,51a.09.09,0,0,1,.12,0l4.51,3.31a.09.09,0,0,0,.12,0l4-3.3" stroke-linecap="round"/><line x1="18.72" y1="31.11" x2="32.02" y2="31.11" stroke-linecap="round"/><line x1="18.72" y1="25.77" x2="34.69" y2="25.77" stroke-linecap="round"/><line x1="18.72" y1="15" x2="36.05" y2="15" stroke-linecap="round"/><line x1="18.72" y1="20.11" x2="33.15" y2="20.11" stroke-linecap="round"/><line x1="41.01" y1="30.95" x2="45.28" y2="30.95" stroke-linecap="round"/><line x1="18.72" y1="36.81" x2="34.69" y2="36.81" stroke-linecap="round"/><line x1="41.86" y1="36.66" x2="45.28" y2="36.66" stroke-linecap="round"/><line x1="41.01" y1="42.56" x2="45.28" y2="42.56" stroke-linecap="round"/><line x1="41.01" y1="25.61" x2="45.28" y2="25.61" stroke-linecap="round"/><line x1="41.86" y1="20.11" x2="45.28" y2="20.11" stroke-linecap="round"/><line x1="41.01" y1="15" x2="45.28" y2="15" stroke-linecap="round"/></svg>